<svg width="full" height="full" viewBox="0 0 523 284" fill="#111117" 
xmlns="http://www.w3.org/2000/svg">
<path d="M0 213.928H56.7138V226.219H12.86V244.3H50.1012V255.839H12.86V283.027H0V213.928Z" fill="white"/>
<path d="M65.3953 248.279C65.3953 243.062 66.2743 238.288 68.0322 233.955C69.7901 229.623 72.2512 225.909 75.4155 222.814C78.6069 219.69 82.4202 217.274 86.8556 215.564C91.3181 213.855 96.2539 213 101.663 213C107.045 213 111.967 213.855 116.43 215.564C120.892 217.274 124.705 219.69 127.87 222.814C131.061 225.909 133.536 229.623 135.294 233.955C137.052 238.288 137.931 243.062 137.931 248.279C137.931 253.525 137.052 258.344 135.294 262.735C133.536 267.097 131.061 270.855 127.87 274.009C124.705 277.162 120.892 279.623 116.43 281.392C111.967 283.131 107.045 284 101.663 284C96.2539 284 91.3181 283.131 86.8556 281.392C82.4202 279.623 78.6069 277.162 75.4155 274.009C72.2512 270.855 69.7901 267.097 68.0322 262.735C66.2743 258.344 65.3953 253.525 65.3953 248.279ZM78.2553 248.279C78.2553 251.845 78.8367 255.058 79.9997 257.917C81.1897 260.775 82.8259 263.222 84.9084 265.255C87.0179 267.259 89.4926 268.807 92.3323 269.897C95.1991 270.988 98.3093 271.533 101.663 271.533C105.016 271.533 108.113 270.988 110.953 269.897C113.82 268.807 116.294 267.259 118.377 265.255C120.459 263.222 122.096 260.775 123.286 257.917C124.476 255.058 125.071 251.845 125.071 248.279C125.071 244.713 124.476 241.515 123.286 238.686C122.096 235.856 120.459 233.469 118.377 231.524C116.294 229.549 113.82 228.046 110.953 227.014C108.113 225.983 105.016 225.467 101.663 225.467C98.3093 225.467 95.1991 225.983 92.3323 227.014C89.4926 228.046 87.0179 229.549 84.9084 231.524C82.8259 233.469 81.1897 235.856 79.9997 238.686C78.8367 241.515 78.2553 244.713 78.2553 248.279Z" fill="white"/>
<path d="M149.817 213.928H162.677V251.993C162.677 255.117 163.069 257.902 163.853 260.348C164.638 262.765 165.801 264.813 167.342 266.493C168.911 268.173 170.845 269.455 173.143 270.339C175.442 271.194 178.12 271.621 181.176 271.621C184.205 271.621 186.869 271.194 189.168 270.339C191.494 269.455 193.427 268.173 194.969 266.493C196.537 264.813 197.714 262.765 198.498 260.348C199.283 257.902 199.675 255.117 199.675 251.993V213.928H212.535V253.672C212.535 258.211 211.831 262.337 210.425 266.051C209.019 269.765 206.977 272.948 204.299 275.6C201.622 278.253 198.336 280.301 194.441 281.745C190.574 283.189 186.152 283.912 181.176 283.912C176.199 283.912 171.764 283.189 167.87 281.745C164.002 280.301 160.73 278.253 158.052 275.6C155.375 272.948 153.333 269.765 151.926 266.051C150.52 262.337 149.817 258.211 149.817 253.672V213.928Z" fill="white"/>
<path d="M228.153 213.928H241.013L280.526 236.475V213.928H293.386V283.027H280.526V251.329L241.013 228.915V283.027H228.153V213.928Z" fill="white"/>
<path d="M311.317 213.928H334.563C341.351 213.928 347.247 214.724 352.25 216.316C357.254 217.907 361.391 220.191 364.664 223.168C367.963 226.115 370.411 229.711 372.007 233.955C373.629 238.17 374.441 242.915 374.441 248.191C374.441 253.201 373.643 257.843 372.047 262.116C370.452 266.361 368.018 270.045 364.745 273.169C361.473 276.263 357.335 278.695 352.331 280.463C347.328 282.202 341.432 283.072 334.644 283.072L311.317 283.027V213.928ZM337.727 270.914C341.567 270.914 344.934 270.384 347.828 269.323C350.722 268.232 353.129 266.699 355.049 264.725C356.997 262.75 358.457 260.363 359.431 257.563C360.404 254.763 360.891 251.639 360.891 248.191C360.891 244.801 360.404 241.751 359.431 239.039C358.457 236.298 356.997 233.985 355.049 232.098C353.129 230.183 350.722 228.709 347.828 227.677C344.934 226.646 341.567 226.13 337.727 226.13H324.177V270.914H337.727Z" fill="white"/>
<path d="M387.341 213.928H419.593C424.461 213.928 428.68 214.488 432.25 215.608C435.82 216.699 438.781 218.29 441.134 220.383C443.487 222.476 445.232 225.025 446.367 228.031C447.53 231.037 448.112 234.441 448.112 238.243C448.112 240.808 447.828 243.254 447.26 245.582C446.692 247.881 445.813 250.003 444.623 251.948C443.46 253.894 441.986 255.632 440.201 257.165C438.416 258.668 436.32 259.921 433.913 260.923L447.706 283.027H431.966L420.039 263.399H419.674L400.201 263.354V283.027H387.341V213.928ZM419.917 251.241C422.351 251.241 424.474 250.932 426.286 250.313C428.125 249.694 429.654 248.824 430.871 247.704C432.115 246.584 433.034 245.229 433.629 243.637C434.251 242.016 434.562 240.218 434.562 238.243C434.562 234.383 433.345 231.406 430.911 229.313C428.477 227.191 424.812 226.13 419.917 226.13H400.201V251.241H419.917Z" fill="white"/>
<path d="M482.797 265.918L455.09 213.928H469.653L489.166 253.23L508.436 213.928H523L495.657 265.83V283.027H482.797V265.918Z" fill="white"/>
<path d="M79.1025 0.679688C103.582 0.679688 122.918 8.16667 137.11 23.1406C151.433 37.9844 158.595 58.2318 158.595 83.8828C158.595 102.633 154.884 118.974 147.462 132.906C139.91 146.708 130.144 157.385 118.165 164.938C106.186 172.49 93.165 176.266 79.1025 176.266H48.6338V208H0.00195312L0.586914 2.24219C0.586914 1.20052 1.10775 0.679688 2.14941 0.679688H79.1025ZM48.6338 48.5312V127.828H79.1025C87.5661 127.828 94.9229 123.792 101.173 115.719C107.423 107.516 110.548 96.9036 110.548 83.8828C110.548 73.4661 107.748 64.9375 102.149 58.2969C96.5505 51.526 88.8682 48.1406 79.1025 48.1406L48.6338 48.5312Z" fill="white"/>
<path d="M264.483 0.679688C278.937 0.679688 292.218 4.19531 304.327 11.2266C316.437 18.2578 326.072 27.6979 333.233 39.5469C340.525 51.3958 344.171 64.8073 344.171 79.7812C344.171 89.5469 342.674 98.401 339.679 106.344C336.684 114.286 333.168 120.992 329.132 126.461C325.226 131.93 321.645 135.966 318.39 138.57C332.843 154.586 340.069 173.401 340.069 195.016L340.131 208H291.632V195.016C291.632 185.38 288.246 177.047 281.476 170.016C274.705 162.984 266.371 159.469 256.476 159.469H230.108L229.947 208H181.477L182.062 2.24219C182.062 1.20052 182.582 0.679688 183.624 0.679688H264.483ZM230.108 111.422H264.483C272.687 111.422 279.978 108.362 286.358 102.242C292.869 96.1224 296.124 88.6354 296.124 79.7812C296.124 71.3177 292.999 64.026 286.749 57.9062C280.499 51.6562 273.077 48.5312 264.483 48.5312H230.108V111.422Z" fill="white"/>
<path d="M444.32 0.679688C459.164 0.679688 472.38 4.26047 483.969 11.4219C495.687 18.5833 504.997 28.284 511.898 40.5234C518.93 52.6327 522.445 66.1746 522.445 81.1484V99.5078C522.445 100.549 521.924 101.07 520.883 101.07H475.961C474.919 101.07 474.398 100.549 474.398 99.5078V81.1484C474.398 72.2944 471.534 64.677 465.805 58.2969C460.076 51.9168 452.914 48.7266 444.32 48.7266C434.815 48.7266 427.523 51.9819 422.445 58.4922C417.367 65.0025 414.828 72.5548 414.828 81.1484V205.953C414.828 206.813 414.851 207.66 414.896 208.492H366.034C366.012 207.65 366 206.804 366 205.953L366.391 81.1484C366.391 66.3048 369.776 52.8931 376.547 40.9141C383.318 28.8048 392.628 19.1041 404.477 11.8125C416.456 4.39068 429.737 0.679688 444.32 0.679688ZM521.273 185.836C522.315 185.836 522.836 186.357 522.836 187.398V205.953C522.836 206.804 522.823 207.65 522.801 208.492H474.31C474.368 207.654 474.398 206.807 474.398 205.953V187.398C474.399 186.357 474.919 185.836 475.961 185.836H521.273Z" fill="white"/>
</svg>
